<svg xmlns="http://www.w3.org/2000/svg" viewBox="0 0 512 512"><path d="M0 0h512v512H0zM44.8 448h192v-32h-192zM70.4 147.2h6.4c14.9-2.1 25.6-14.9 25.6-32V64H78.9v53.3c0 8.5-2.1 10.7-8.5 10.7s-10.7-2.2-12.8-6.4l-14.9 12.8c6.4 10.7 17.1 14.9 27.8 12.7zm106.7 0V128h-44.8v-12.8h38.4V96h-38.4V83.2h44.8V64h-68.2v85.3h68.2zm27.8 0h23.4v-64h25.6V64h-72.5v19.2h25.6v64zm-85.3 81.1c0-10.7-6.4-19.2-17.1-19.2c8.5-2.2 12.7-10.7 12.7-19.3c0-4.2-2.1-10.7-4.2-14.9c-6.4-6.4-14.9-8.5-23.4-8.5H44.8v83.2h42.7c19.2 0 32-8.5 32-21.3zM66.2 185.6h14.9c6.4 0 10.7 2.2 10.7 6.4c0 6.4-4.2 8.5-10.7 8.5H66.2zm0 44.8v-14.9h17c8.6 0 12.8 2.1 10.7 6.3c0 4.4-4.2 8.6-10.7 8.6zm157.8-64l-32 74.7-12.8-19.3c10.7-4.2 17.1-14.9 17.1-25.6c0-6.4-2.1-14.9-6.4-19.2c-8.5-8.6-19.2-10.7-27.6-10.7h-40.6v83.2h23.5V224h10.7l17.1 25.6h38.3l6.4-14.9h32l6.4 14.9h25.6l-34.1-85.3H224zm-64 40.5h-14.9v-19.2H160c6.4 0 12.8 2.1 12.8 10.7c0 4.2-4.4 8.5-12.8 8.5zm83.2 10.7h-17l8.5-23.4zm40.6 32h23.4v-83.2h-23.4zm85.3-38.4l-34.2-44.7h-21.3v83.2h23.5v-44.7l36.2 46.9h19.2v-85.3h-23.4zm66.1-12.7c-10.7-2.2-14.9-4.2-14.9-8.6c0-2.1 2.2-4.2 8.6-4.2c8.5 0 17 4.2 23.4 8.6l12.8-17.1c-10.7-8.6-21.3-10.7-34.2-10.7c-19.2 0-32 12.7-32 27.8c0 17 12.8 21.3 32 25.6c10.7 2.1 14.9 4.2 14.9 8.5s-4.2 6.4-10.7 6.4c-10.7 0-19.2-4.2-27.6-10.7l-12.8 14.9c10.7 8.6 25.6 12.8 38.4 12.8c21.3 0 34.1-10.7 34.1-27.8c0-14.9-12.7-21.3-32-25.6z"/></svg>