<svg xmlns="http://www.w3.org/2000/svg" viewBox="0 0 511 512"><path d="M501.7 322.3c11.3-41.9 12.1-87.3 0-132.3C465.3 54 325.3-26.7 189.1 9.7C84 37.9 11.8 127.6 1.2 229.6l43.1 0C54.6 146.8 113.8 74.4 199.5 51.5C305.4 23.2 414 80.4 451.9 180.7l-42 11.2c-19.3-46.7-58.2-80.9-104.3-95.5l-7.7 43.7c36.4 13.4 65.9 43.7 76.7 83.9c15.7 58.7-13.6 118.8-66.7 143.7l11.5 42.8c69.9-28.8 111.9-101.5 101.9-176.3L463.1 223c4.5 28.6 2.9 57-3.8 83.8l42.4 15.4zm-180.5 180C185 538.7 45.1 458 8.6 322c-4.3-15.9-6.9-31.8-8.1-47.6H43.6c1.1 11.9 3.2 23.8 6.4 35.7c3.3 12.5 7.7 24.4 13.1 35.6l38.4-23.1c-3.2-7.5-6-15.3-8.1-23.4C69.4 210 122.4 118.3 211.8 94.4c16.9-4.5 34-6.3 50.6-5.6l-7.7 43.7c-10.4 0-21 1.4-31.5 4.2c-66 17.7-105.1 85.4-87.4 151.2c1.1 4.1 2.4 8 3.8 11.9l49.2-29.5L173.9 231l46.4-47.7L279 170.7l17 20.9-27 27.4-23.6 7.4-16.9 17.3 8.3 23s16.7 17.8 16.8 17.8l23.6-6.3 16.8-18.5 36.7-11.6 10.9 24.6-37.9 46.4-63.5 20.1-28.5-31.7-49.6 29.8c25.4 29 63.7 45.1 103.3 41.7L277 421.9c-59.2 7.8-117-16.7-152.9-61.7l-38.3 23c50.4 66.2 137.7 99 223.1 76.2C370.4 442.9 418.3 401 444.2 348l42.5 15.4c-30.8 66-89.5 118.5-165.4 138.8z"/></svg>