<svg xmlns="http://www.w3.org/2000/svg" viewBox="0 0 512 512"><path d="M376.8 158.2l14.8-37.4 42.7 0L414 64.1 439.4 0 512 192.8l-53.5 0-12.4-34.5zm-45.7 34.5L408.9 0 357.3 0 304.2 124.6 266.4 0 226.8 0 186.2 124.6 157.5 67.8l-25.9 79.8 26.3 45.1 50.7 0L245.3 81.1l35 111.7zM48.9 126.6l31.7 0c9.6 0 18.2-1.1 25.7-3.2l8.2-25.3 22.9-70.7c-1.7-2.8-3.7-5.4-6-7.9C119.7 6.5 102.5 0 79.8 0L0 0 0 192.8l48.9 0 0-66.2zm42-82.2c4.6 4.6 6.9 10.8 6.9 18.6c0 7.8-2 14-6.1 18.6c-4.4 5.1-12.6 7.6-24.5 7.6l-18.3 0 0-51.8 18.5 0c11.1 0 18.9 2.3 23.5 6.9z"/></svg>