<svg xmlns="http://www.w3.org/2000/svg" viewBox="0 0 512 512"><path d="M167.1 142.2V141c0-21.3-14.2-32-37.9-32H93.6v65.2h36.8c23.7 0 36.7-14.2 36.7-32zM0 0v512h512V0H0zm47.4 67.6h85.3c51 0 81.8 29.6 81.8 73.5v1.2c0 48.6-37.9 74.7-85.4 74.7H93.6v62.8H47.4V67.6zM240.6 448h-192v-32h192v32zm102-165.9c-62.8 1.2-109-47.4-109-107.9c0-60.4 45-110.2 110.2-110.2c40.3 0 64 13 84.1 33.2l-29.6 34.3c-16.6-15.4-33.2-23.7-54.5-23.7c-35.4 0-61.3 29.3-61.6 65.8c.3 36.5 25 65.8 61.6 65.8c23.7 0 39.1-9.5 55.7-24.9l29.7 29.6c-21.3 23.7-46.2 38-86.5 38z"/></svg>