<svg xmlns="http://www.w3.org/2000/svg" viewBox="0 0 512 512"><path d="M4.9 178.5s-12.5-9.1 2.5-21.2l34.9-31.5s10-10.6 20.5-1.4L384.5 370.7V488.7s-.2 18.5-23.7 16.5L4.9 178.5zm82.9 76.1L4.9 330.9s-8.5 6.4 0 17.9l38.5 35.4s9.1 9.9 22.7-1.4l87.9-67.4L87.8 254.6zm145.6 .6L385.5 137.9l-1-117.4s-6.5-25.6-28.2-12.3L153.9 194.4l79.4 60.9zM360.8 505.4c8.8 9.1 19.5 6.1 19.5 6.1l118.5-59c15.2-10.5 13-23.4 13-23.4V76.5c0-15.5-15.7-20.9-15.7-20.9L393.5 5.6c-22.4-14-37.1 2.5-37.1 2.5s18.9-13.8 28.2 12.3l0 466.1c0 3.2-.7 6.4-2 9.2c-2.7 5.5-8.6 10.7-22.7 8.5l1 1.1z"/></svg>